# xmcd CD database file
#
# Track frame offsets:
#	150
#	17165
#	40167
#
# Disc length: 826 seconds
#
# Revision: 1
# Processed by: cddbd v1.5.1PL0 Copyright (c) Steve Scherf et al.
# Submitted via: CDex 1.51
#
DISCID=1b033803
DTITLE=スネオヘアー - 夏より
DYEAR=1999
DGENRE=Rock
TTITLE0=アイモカワラズ
TTITLE1=知らない町
TTITLE2=ナロウカーヴ
EXTD=YEAR: 1999
EXTT0=
EXTT1=
EXTT2=
PLAYORDER=
